<svg id="Layer_1" data-name="Layer 1" xmlns="http://www.w3.org/2000/svg" viewBox="0 0 263.78 231.7"><defs><style>.cls-1{fill:#7986cb;}.cls-2{fill:#3f51b5;}</style></defs><title>eslint</title><path class="cls-1" d="M79.76,84.33l50.1-28.93a4.07,4.07,0,0,1,4,0L184,84.33a4,4,0,0,1,2,3.51v57.84a4.06,4.06,0,0,1-2,3.51l-50.1,28.93a4.07,4.07,0,0,1-4,0l-50.1-28.93a4,4,0,0,1-2-3.51V87.84a4,4,0,0,1,2-3.51"/><path class="cls-2" d="M262.15,110.68,202.29,6.54C200.11,2.78,196.1,0,191.75,0H72c-4.35,0-8.37,2.78-10.54,6.54L1.63,110.45a12.4,12.4,0,0,0,0,12.28L61.49,226A11.8,11.8,0,0,0,72,231.7H191.75c4.35,0,8.37-1.86,10.54-5.63l59.86-103.45a11.76,11.76,0,0,0,0-11.94m-49.57,50.07a4.4,4.4,0,0,1-2.25,3.72l-76.24,44a4.38,4.38,0,0,1-4.32,0l-76.3-44a4.4,4.4,0,0,1-2.25-3.72v-88a4.36,4.36,0,0,1,2.24-3.71l76.24-44a4.31,4.31,0,0,1,4.31,0l76.31,44a4.38,4.38,0,0,1,2.26,3.71Z"/></svg>