<svg id="Layer_1" data-name="Layer 1" xmlns="http://www.w3.org/2000/svg" viewBox="0 0 512 148.29"><defs><style>.cls-1{fill:#222;}</style></defs><title>express</title><path class="cls-1" d="M3.33,115.63v-57H74.48V55.32H3.33v-52H79V0H0V119H79.64v-3.33ZM143.79,33.32,114.3,72.14,85.47,33.32H81.14L112.3,74.64,78.14,119h4L114.3,77.14,146.62,119h4.16L116.46,74.64l31.33-41.32Zm17,115V95h.33a34.26,34.26,0,0,0,11.83,18.74q8.84,7.08,22.5,7.08a32.55,32.55,0,0,0,27.07-13.32,45.26,45.26,0,0,0,7-14.33A60.26,60.26,0,0,0,231.92,76a60.84,60.84,0,0,0-2.49-17.83A42.79,42.79,0,0,0,222.18,44a33.34,33.34,0,0,0-11.5-9.33,33.86,33.86,0,0,0-15.24-3.34,36.86,36.86,0,0,0-12.08,1.92,32.5,32.5,0,0,0-9.92,5.41A37.12,37.12,0,0,0,166,46.9a38.1,38.1,0,0,0-4.84,10.41h-.33v-24h-3.33v115Zm34.66-30.66q-15.66,0-25.16-10.75T160.78,76a53.13,53.13,0,0,1,2.33-15.83A41.22,41.22,0,0,1,169.86,47a32.41,32.41,0,0,1,10.91-9,31.72,31.72,0,0,1,14.67-3.33A30.51,30.51,0,0,1,210,38a29.51,29.51,0,0,1,10.33,9.08,42.1,42.1,0,0,1,6.17,13.16A57.9,57.9,0,0,1,228.59,76a59.79,59.79,0,0,1-1.91,14.91,42.71,42.71,0,0,1-5.92,13.33,32.13,32.13,0,0,1-10.25,9.66,28.75,28.75,0,0,1-15.07,3.75ZM250.25,119V70.48a47.46,47.46,0,0,1,2-13.67,33.41,33.41,0,0,1,6.17-11.74,28.85,28.85,0,0,1,10.58-8,32,32,0,0,1,15.24-2.41V31.32A41.31,41.31,0,0,0,270.83,33a32.48,32.48,0,0,0-9.91,5,25.59,25.59,0,0,0-6.67,7.41,32.77,32.77,0,0,0-3.66,9.08h-.34V33.32h-3.33V119Zm38.16-42.15h71.64a59.42,59.42,0,0,0-1.75-17,42.37,42.37,0,0,0-6.66-14.49,33.94,33.94,0,0,0-11.83-10.16,36.39,36.39,0,0,0-17.25-3.84,35.07,35.07,0,0,0-26,11.75,44.36,44.36,0,0,0-8.33,14.08,53.17,53.17,0,0,0-3.17,19,69.9,69.9,0,0,0,2.17,17.75,41.65,41.65,0,0,0,6.66,14.32,30,30,0,0,0,11.58,9.42q7.08,3.33,17.08,3.16,14.67,0,24.66-8.24T359.05,89.3h-3.33q-2.18,14.17-11.08,21.25t-22.41,7.08q-9.17,0-15.5-3.17a28.14,28.14,0,0,1-10.33-8.66,38,38,0,0,1-5.91-12.91,69.42,69.42,0,0,1-2.08-16.08Zm68.31-3.33H288.41a51.46,51.46,0,0,1,3.33-16.17,40.26,40.26,0,0,1,7.41-12.24,31,31,0,0,1,10.67-7.75,32.13,32.13,0,0,1,13.07-2.66,33.05,33.05,0,0,1,14.67,3.08,30.33,30.33,0,0,1,10.58,8.41,37.11,37.11,0,0,1,6.41,12.41,50.56,50.56,0,0,1,2.17,14.92Zm72.47-14.83h3.34q0-14.32-8.33-20.83t-22.66-6.5a39.83,39.83,0,0,0-13.5,2,27.16,27.16,0,0,0-9,5.17,18.59,18.59,0,0,0-5,7,20.23,20.23,0,0,0-1.49,7.33q0,7,2.49,11.16a16.48,16.48,0,0,0,7.84,6.5,60.15,60.15,0,0,0,8.33,3q4.67,1.32,10.83,2.83L412.87,79a39.15,39.15,0,0,1,9.41,3.59,20.34,20.34,0,0,1,6.66,5.74,15,15,0,0,1,2.59,9.17,16.27,16.27,0,0,1-2.59,9.33,20.8,20.8,0,0,1-6.58,6.25,29.39,29.39,0,0,1-8.91,3.5,44.6,44.6,0,0,1-9.58,1.08q-15.17,0-23.24-6.75t-8.08-21.24h-3.34q0,16.15,8.75,23.66t25.91,7.49A50.2,50.2,0,0,0,415,119.54a30.78,30.78,0,0,0,10-4.08,22.59,22.59,0,0,0,7.16-7.33,20.72,20.72,0,0,0,2.75-11,18.51,18.51,0,0,0-2.42-10,20.13,20.13,0,0,0-6.33-6.33,33.61,33.61,0,0,0-8.83-3.92q-4.92-1.41-9.91-2.75-7-1.83-12.25-3.16a74.83,74.83,0,0,1-9.75-3.17,16.52,16.52,0,0,1-6.91-5.25q-2.58-3.41-2.58-9.74a23.17,23.17,0,0,1,.66-4.17,14.94,14.94,0,0,1,3.17-6.08,21.29,21.29,0,0,1,7.66-5.5q5.17-2.41,14.17-2.41A44.2,44.2,0,0,1,412.78,36a23.28,23.28,0,0,1,8.75,4.25,19.28,19.28,0,0,1,5.66,7.41,26.93,26.93,0,0,1,2,11Zm77.15,0h3.33q0-14.32-8.33-20.83t-22.66-6.5a39.87,39.87,0,0,0-13.5,2,27.27,27.27,0,0,0-9,5.17,18.56,18.56,0,0,0-5,7,20,20,0,0,0-1.5,7.33q0,7,2.5,11.16a16.4,16.4,0,0,0,7.83,6.5,60.15,60.15,0,0,0,8.33,3q4.66,1.32,10.83,2.83L490,79a39.15,39.15,0,0,1,9.41,3.59,20.48,20.48,0,0,1,6.67,5.74,15.1,15.1,0,0,1,2.58,9.17,16.34,16.34,0,0,1-2.58,9.33,20.94,20.94,0,0,1-6.59,6.25,29.39,29.39,0,0,1-8.91,3.5,44.6,44.6,0,0,1-9.58,1.08q-15.17,0-23.24-6.75t-8.08-21.24h-3.34q0,16.15,8.75,23.66T481,120.79a50.14,50.14,0,0,0,11.08-1.25,30.78,30.78,0,0,0,10-4.08,22.59,22.59,0,0,0,7.16-7.33,20.72,20.72,0,0,0,2.75-11,18.51,18.51,0,0,0-2.42-10,20.13,20.13,0,0,0-6.33-6.33,33.61,33.61,0,0,0-8.83-3.92q-4.91-1.41-9.91-2.75-7-1.83-12.25-3.16a74.67,74.67,0,0,1-9.74-3.17,16.49,16.49,0,0,1-6.92-5.25Q453,59.16,453,52.82a22.55,22.55,0,0,1,.67-4.17,14.91,14.91,0,0,1,3.16-6.08,21.24,21.24,0,0,1,7.67-5.5q5.16-2.41,14.16-2.41A44.15,44.15,0,0,1,489.92,36a23.28,23.28,0,0,1,8.75,4.25,19.4,19.4,0,0,1,5.67,7.41,27.1,27.1,0,0,1,2,11Z" transform="translate(0 0)"/></svg>