<svg id="Layer_1" data-name="Layer 1" xmlns="http://www.w3.org/2000/svg" viewBox="0 0 21.3 17.63"><defs><style>.cls-1{fill:#0277bd;}.cls-2{fill:#b3e5fc;}</style></defs><title>folder-docs</title><path class="cls-1" d="M8,0H2A2,2,0,0,0,0,2V14a2,2,0,0,0,2,2H18a2,2,0,0,0,2-2V4a2,2,0,0,0-2-2H10Z"/><path class="cls-2" d="M16.58,8.86h3.71L16.58,5.15V8.86M11.85,4.13h5.4L21.3,8.18v8.1A1.36,1.36,0,0,1,20,17.63h-8.1a1.34,1.34,0,0,1-1.35-1.35h0V5.48a1.34,1.34,0,0,1,1.35-1.35m6.07,10.8V13.58H11.85v1.35h6.07m2-2.7V10.88h-8.1v1.35Z"/></svg>