<svg id="Layer_1" data-name="Layer 1" xmlns="http://www.w3.org/2000/svg" viewBox="0 0 21.52 17.7"><defs><style>.cls-1{fill:#039be5;}.cls-2{fill:#b3e5fc;fill-rule:evenodd;}</style></defs><title>folder-public</title><path class="cls-1" d="M8,0H2A2,2,0,0,0,0,2V14a2,2,0,0,0,2,2H18a2,2,0,0,0,2-2V4a2,2,0,0,0-2-2H10Z"/><path class="cls-2" d="M18,12.75a9.65,9.65,0,0,0,0-2.48h2.09a5.08,5.08,0,0,1,.16,1.24,5.77,5.77,0,0,1-.16,1.24m-3.19,3.44A9.37,9.37,0,0,0,17.79,14h1.83a5,5,0,0,1-2.68,2.21m-.15-3.44h-2.9a8.52,8.52,0,0,1-.1-1.24,8.41,8.41,0,0,1,.1-1.24h2.9a10,10,0,0,1,.1,1.24,10.2,10.2,0,0,1-.1,1.24m-1.45,3.68A8.17,8.17,0,0,1,14.16,14h2.36a8.41,8.41,0,0,1-1.18,2.45M12.86,9h-1.8a4.92,4.92,0,0,1,2.67-2.2A11.08,11.08,0,0,0,12.86,9m-1.8,5h1.8a10.93,10.93,0,0,0,.87,2.21A4.94,4.94,0,0,1,11.06,14m-.51-1.23a4.89,4.89,0,0,1,0-2.48h2.09a10.19,10.19,0,0,0-.09,1.24,10.19,10.19,0,0,0,.09,1.24m2.7-6.17A8.66,8.66,0,0,1,16.52,9H14.16a8.4,8.4,0,0,1,1.18-2.45M19.62,9H17.79a9.82,9.82,0,0,0-.85-2.2A5,5,0,0,1,19.62,9M15.34,5.32a6.19,6.19,0,0,0,0,12.38h0a6.19,6.19,0,0,0,0-12.38Z"/></svg>