<svg id="Layer_1" data-name="Layer 1" xmlns="http://www.w3.org/2000/svg" viewBox="0 0 21.47 17.71"><defs><style>.cls-1{fill:#ffca28;}.cls-2{fill:#ffecb3;fill-rule:evenodd;}</style></defs><title>folder-database</title><path class="cls-1" d="M8,0H2A2,2,0,0,0,0,2V14a2,2,0,0,0,2,2H18a2,2,0,0,0,2-2V4a2,2,0,0,0-2-2H10Z"/><path class="cls-2" d="M15.76,4.86c-3.16,0-5.71,1.28-5.71,2.86s2.55,2.85,5.71,2.85,5.71-1.28,5.71-2.85-2.55-2.86-5.71-2.86M10.05,9.14v2.14c0,1.58,2.55,2.86,5.71,2.86s5.71-1.28,5.71-2.86V9.14c0,1.58-2.55,2.86-5.71,2.86s-5.71-1.28-5.71-2.86m0,3.57v2.14c0,1.58,2.55,2.86,5.71,2.86s5.71-1.28,5.71-2.86V12.71c0,1.58-2.55,2.86-5.71,2.86S10.05,14.29,10.05,12.71Z"/></svg>