<svg id="Layer_1" data-name="Layer 1" xmlns="http://www.w3.org/2000/svg" viewBox="0 0 21.65 17.01"><defs><style>.cls-1{fill:#5c6bc0;}.cls-2{fill:#c5cae9;fill-rule:evenodd;}</style></defs><title>folder-middleware</title><path class="cls-1" d="M8,0H2A2,2,0,0,0,0,2V14a2,2,0,0,0,2,2H18a2,2,0,0,0,2-2V4a2,2,0,0,0-2-2H10Z"/><path class="cls-2" d="M10.28,10.24h.92V7.78a1.22,1.22,0,0,1,1.23-1.22h2.46V5.63A1.54,1.54,0,0,1,16.42,4.1h0A1.54,1.54,0,0,1,18,5.63h0v.93h2.46a1.23,1.23,0,0,1,1.23,1.23v2.33h-.92a1.66,1.66,0,1,0,0,3.32h.92v2.34A1.23,1.23,0,0,1,20.42,17H18.08v-.93a1.66,1.66,0,1,0-3.32,0V17H12.43a1.23,1.23,0,0,1-1.23-1.23V13.32h-.92a1.54,1.54,0,1,1,0-3.07Z"/></svg>