<svg id="Layer_1" data-name="Layer 1" xmlns="http://www.w3.org/2000/svg" viewBox="0 0 21.91 16.93"><defs><style>.cls-1{fill:#43a047;}.cls-2{fill:#c8e6c9;fill-rule:evenodd;}</style></defs><title>folder-routes</title><path class="cls-1" d="M8,0H2A2,2,0,0,0,0,2V14a2,2,0,0,0,2,2H18a2,2,0,0,0,2-2V4a2,2,0,0,0-2-2H10Z"/><path class="cls-2" d="M9.37,5.1V11l2.09-2.09,2.09,2.43a2.17,2.17,0,0,1,.7,1.4v4.17H17V12.06a3.27,3.27,0,0,0-.37-1.39,7.34,7.34,0,0,0-1-1.4L13.55,6.89,15.29,5.1m4.53,0L16.71,8.21l.32.37a7.93,7.93,0,0,1,1,1.39,3.28,3.28,0,0,1,.28.79l3.57-3.58"/></svg>