<svg id="Layer_1" data-name="Layer 1" xmlns="http://www.w3.org/2000/svg" viewBox="0 0 21.7 16.86"><defs><style>.cls-1{fill:#ef5350;}.cls-2{fill:#ffcdd2;fill-rule:evenodd;}</style></defs><title>folder-app</title><path class="cls-1" d="M8,0H2A2,2,0,0,0,0,2V14a2,2,0,0,0,2,2H18a2,2,0,0,0,2-2V4a2,2,0,0,0-2-2H10Z"/><path class="cls-2" d="M9.38,7.62h3.08V4.54H9.38ZM14,16.86h3.08V13.78H14Zm-4.62,0h3.08V13.78H9.38Zm0-4.62h3.08V9.16H9.38Zm4.62,0h3.08V9.16H14Zm4.62-7.7V7.62H21.7V4.54ZM14,7.62h3.08V4.54H14Zm4.62,4.62H21.7V9.16H18.62Zm0,4.62H21.7V13.78H18.62Z"/></svg>