<svg id="Layer_1" data-name="Layer 1" xmlns="http://www.w3.org/2000/svg" viewBox="0 0 21.41 16.74"><defs><style>.cls-1{fill:#7cb342;}.cls-2{fill:#dcedc8;fill-rule:evenodd;}</style></defs><title>folder-utils</title><path class="cls-1" d="M8,0H2A2,2,0,0,0,0,2V14a2,2,0,0,0,2,2H18a2,2,0,0,0,2-2V4a2,2,0,0,0-2-2H10Z"/><path class="cls-2" d="M11.31,7.77H10.19v7.85a1.12,1.12,0,0,0,1.12,1.12h7.86V15.62H11.31Zm9-2.25H13.56a1.12,1.12,0,0,0-1.12,1.12v6.74a1.12,1.12,0,0,0,1.12,1.12h6.73a1.12,1.12,0,0,0,1.12-1.12V6.64A1.12,1.12,0,0,0,20.29,5.52Zm-.56,5.05H17.49v2.25H16.36V10.57H14.12V9.45h2.24V7.2h1.13V9.45h2.24Z"/></svg>