<svg id="Layer_1" data-name="Layer 1" xmlns="http://www.w3.org/2000/svg" viewBox="0 0 21.71 18.07"><defs><style>.cls-1{fill:#00acc1;}.cls-2{fill:#80deea;fill-rule:evenodd;}</style></defs><title>folder-config</title><path class="cls-1" d="M8,0H2A2,2,0,0,0,0,2V14a2,2,0,0,0,2,2H18a2,2,0,0,0,2-2V4a2,2,0,0,0-2-2H10Z"/><path class="cls-2" d="M15.29,13.79A2.32,2.32,0,0,1,13,11.48h0a2.31,2.31,0,1,1,2.31,2.31h0m4.9-1.67a4.48,4.48,0,0,0,0-.64,4.89,4.89,0,0,0,0-.66l1.39-1.08a.33.33,0,0,0,.08-.42L20.34,7a.32.32,0,0,0-.4-.14l-1.64.66a4.49,4.49,0,0,0-1.12-.65l-.24-1.75a.34.34,0,0,0-.33-.28H14a.34.34,0,0,0-.33.28L13.4,6.91a4.72,4.72,0,0,0-1.11.64L10.64,6.9a.32.32,0,0,0-.4.14L8.92,9.32A.33.33,0,0,0,9,9.74l1.39,1.08c0,.22,0,.44,0,.66s0,.43,0,.64L9,13.21a.33.33,0,0,0-.08.42l1.32,2.29a.34.34,0,0,0,.4.14l1.65-.66a4.69,4.69,0,0,0,1.11.65l.25,1.75a.32.32,0,0,0,.33.27h2.63a.33.33,0,0,0,.33-.27l.24-1.75a5.2,5.2,0,0,0,1.12-.65l1.64.66a.33.33,0,0,0,.4-.14l1.32-2.29a.33.33,0,0,0-.08-.42Z"/></svg>