<svg id="Layer_1" data-name="Layer 1" xmlns="http://www.w3.org/2000/svg" viewBox="0 0 21.5 17.5"><defs><style>.cls-1{fill:#546e7a;}.cls-2{fill:#cfd8dc;}</style></defs><title>folder-scripts</title><path class="cls-1" d="M8,0H2A2,2,0,0,0,0,2V14a2,2,0,0,0,2,2H18a2,2,0,0,0,2-2V4a2,2,0,0,0-2-2H10Z"/><path class="cls-2" d="M16.47,16.24A1.27,1.27,0,0,0,17.73,15V6.8H13.32a.63.63,0,0,0-.63.63v6.29H10.8V6.8a1.9,1.9,0,0,1,1.89-1.89h6.92A1.9,1.9,0,0,1,21.5,6.8v.63H19v8.18a1.89,1.89,0,0,1-1.89,1.89H10.8a1.9,1.9,0,0,1-1.89-1.89V15h6.3A1.27,1.27,0,0,0,16.47,16.24Z"/></svg>