<svg id="Layer_1" data-name="Layer 1" xmlns="http://www.w3.org/2000/svg" viewBox="0 0 21.97 17.68"><defs><style>.cls-1{fill:#4caf50;}.cls-2{fill:#c8e6c9;}</style></defs><title>folder-src</title><path class="cls-1" d="M8,0H2A2,2,0,0,0,0,2V14a2,2,0,0,0,2,2H18a2,2,0,0,0,2-2V4a2,2,0,0,0-2-2H10Z"/><path class="cls-2" d="M13.6,17.68l-.15,0a.73.73,0,0,1-.51-.86L14.85,6.6a.76.76,0,0,1,.32-.48A.6.6,0,0,1,15.66,6a.74.74,0,0,1,.51.86l-1.92,10.2a.69.69,0,0,1-.31.48A.6.6,0,0,1,13.6,17.68Zm3.84-1.45h-.05a.63.63,0,0,1-.47-.26A.78.78,0,0,1,17,15l3.29-3.22L17,8.75a.79.79,0,0,1-.1-1,.65.65,0,0,1,.47-.28.66.66,0,0,1,.5.16l3.86,3.54a.78.78,0,0,1,.11,1l-.1.11-3.85,3.77a.65.65,0,0,1-.46.18Zm-5.77,0a.68.68,0,0,1-.45-.19L7.37,12.28a.76.76,0,0,1,0-1.09v0l3.87-3.53a.6.6,0,0,1,.49-.17.66.66,0,0,1,.47.28.79.79,0,0,1-.09,1l-3.28,3L12.12,15a.76.76,0,0,1,.07,1,.67.67,0,0,1-.47.27Z"/></svg>