<svg id="Layer_1" data-name="Layer 1" xmlns="http://www.w3.org/2000/svg" viewBox="0 0 21.62 17.59"><defs><style>.cls-1{fill:#afb42b;}.cls-2{fill:#f0f4c3;fill-rule:evenodd;}</style></defs><title>folder-helper</title><path class="cls-1" d="M8,0H2A2,2,0,0,0,0,2V14a2,2,0,0,0,2,2H18a2,2,0,0,0,2-2V4a2,2,0,0,0-2-2H10Z"/><path class="cls-2" d="M18.67,5.43a1.2,1.2,0,0,0-.87.36L14.24,9.35l3.46,3.47,3.56-3.56a1.25,1.25,0,0,0,0-1.74L19.52,5.79a1.18,1.18,0,0,0-.85-.36m-5,4.51L10,13.59a1.23,1.23,0,0,0,0,1.74h0c-.75.76-1.51,1.51-2.26,2.26h3.47l.52-.52a1.23,1.23,0,0,0,1.72,0l3.65-3.65"/></svg>