<svg id="Layer_1" data-name="Layer 1" xmlns="http://www.w3.org/2000/svg" viewBox="0 0 21.72 16.77"><defs><style>.cls-1{fill:#ef5350;}.cls-2{fill:#ffcdd2;fill-rule:evenodd;}</style></defs><title>folder-rules</title><path class="cls-1" d="M8,0H2A2,2,0,0,0,0,2V14a2,2,0,0,0,2,2H18a2,2,0,0,0,2-2V4a2,2,0,0,0-2-2H10Z"/><path class="cls-2" d="M15.34,14.45,13,12.13l.82-.82,1.5,1.5L19.17,9l.82.82M16.51,6.33a.58.58,0,1,1,0,1.16.58.58,0,1,1,0-1.16m4.06,0H18.14a1.73,1.73,0,0,0-3.27,0H12.44a1.16,1.16,0,0,0-1.16,1.16v8.12a1.16,1.16,0,0,0,1.16,1.16h8.12a1.15,1.15,0,0,0,1.16-1.16V7.49a1.15,1.15,0,0,0-1.16-1.16Z"/></svg>