<?xml version="1.0" encoding="utf-8"?>
<!-- Generator: Adobe Illustrator 24.1.3, SVG Export Plug-In . SVG Version: 6.00 Build 0)  -->
<svg version="1.1" id="Layer_1" xmlns="http://www.w3.org/2000/svg" xmlns:xlink="http://www.w3.org/1999/xlink" x="0px" y="0px"
	 viewBox="0 0 21.4 17.2" style="enable-background:new 0 0 21.4 17.2;" xml:space="preserve">
<style type="text/css">
	.st0{fill:#FBC02D;}
	.st1{fill-rule:evenodd;clip-rule:evenodd;fill:#FFF9C4;}
</style>
<path class="st0" d="M8,0H2C0.9,0,0,0.9,0,2v12c0,1.1,0.9,2,2,2h16c1.1,0,2-0.9,2-2V4c0-1.1-0.9-2-2-2h-8L8,0z"/>
<path class="st1" d="M19.6,8.1h-6.1V6.8h6.1 M17.2,12.9h-3.6v-1.2h3.6 M19.6,10.5h-6.1V9.3h6.1 M20.2,5h-7.3c-0.7,0-1.2,0.5-1.2,1.2
	c0,0,0,0,0,0v7.3c0,0.7,0.5,1.2,1.2,1.2h7.3c0.7,0,1.2-0.5,1.2-1.2l0,0V6.2C21.4,5.6,20.9,5,20.2,5 M10.5,7.5H9.3V16
	c0,0.7,0.5,1.2,1.2,1.2H19V16h-8.5L10.5,7.5z"/>
</svg>
