<svg id="Layer_1" data-name="Layer 1" xmlns="http://www.w3.org/2000/svg" viewBox="0 0 21.24 17.37"><defs><style>.cls-1{fill:#ffca28;}.cls-2{fill:#ffecb3;}</style></defs><title>folder-javascript</title><path class="cls-1" d="M8,0H2A2,2,0,0,0,0,2V14a2,2,0,0,0,2,2H18a2,2,0,0,0,2-2V4a2,2,0,0,0-2-2H10Z"/><path class="cls-2" d="M15.93,14.37a2.21,2.21,0,0,0,2,1.22c.83,0,1.35-.42,1.35-1s-.54-.93-1.45-1.32l-.5-.22c-1.44-.61-2.41-1.38-2.41-3a2.68,2.68,0,0,1,2.92-2.64A2.94,2.94,0,0,1,20.66,9l-1.55,1a1.36,1.36,0,0,0-1.29-.86.86.86,0,0,0-.95.78.22.22,0,0,0,0,.08c0,.58.38.84,1.23,1.21l.5.21c1.7.74,2.65,1.47,2.65,3.14s-1.41,2.79-3.3,2.79a3.85,3.85,0,0,1-3.62-2.05Zm-7,.18c.31.58.58,1,1.28,1s1.07-.26,1.07-1.26V7.55h2v6.8a2.71,2.71,0,0,1-3,3,3.1,3.1,0,0,1-3-1.82Z"/></svg>