<svg id="Layer_1" data-name="Layer 1" xmlns="http://www.w3.org/2000/svg" viewBox="0 0 20.72 17.73"><defs><style>.cls-1{fill:#00bfa5;}.cls-1,.cls-2{fill-rule:evenodd;}.cls-2{fill:#a7ffeb;}</style></defs><title>folder-prisma</title><path class="cls-1" d="M8,0H2A2,2,0,0,0,0,2V14a2,2,0,0,0,2,2H18a2,2,0,0,0,2-2V4a2,2,0,0,0-2-2H10Z"/><path class="cls-2" d="M19.59,15l-6.13,1.77a.26.26,0,0,1-.33-.29L15.32,6.23a.21.21,0,0,1,.4,0l4.06,8.39a.29.29,0,0,1-.14.38Zm1.05-.42-4.7-9.72a.77.77,0,0,0-.64-.42.74.74,0,0,0-.68.35l-5.1,8a.74.74,0,0,0,0,.81L12,17.38a.81.81,0,0,0,.9.32l7.23-2.08a.81.81,0,0,0,.5-.42A.75.75,0,0,0,20.64,14.56Z"/></svg>