<svg id="Layer_1" data-name="Layer 1" xmlns="http://www.w3.org/2000/svg" viewBox="0 0 21.3 17.47"><defs><style>.cls-1{fill:#ef5350;}.cls-2{fill:#ffcdd2;fill-rule:evenodd;}</style></defs><title>folder-class</title><path class="cls-1" d="M8,0H2A2,2,0,0,0,0,2V14a2,2,0,0,0,2,2H18a2,2,0,0,0,2-2V4a2,2,0,0,0-2-2H10Z"/><path class="cls-2" d="M11.81,4.71A1.32,1.32,0,0,0,10.46,6h0v10.2a1.31,1.31,0,0,0,1.35,1.27h8.13a1.33,1.33,0,0,0,1.36-1.28h0V6a1.31,1.31,0,0,0-1.35-1.28H11.81Zm0,4.47h8.13v3.18H11.81Zm0,4.46h8.13v2.55H11.81Z"/></svg>