<svg id="Layer_1" data-name="Layer 1" xmlns="http://www.w3.org/2000/svg" viewBox="0 0 18 18"><defs><style>.cls-1{fill:#ffca28;}</style></defs><title>javascript</title><path class="cls-1" d="M0,0H18V18H0V0M4.73,15a2.63,2.63,0,0,0,2.54,1.55A2.3,2.3,0,0,0,9.8,14V8.26H8.1V14c0,.86-.35,1.08-.9,1.08s-.82-.4-1.09-.87L4.73,15m6-.18a3.26,3.26,0,0,0,3.09,1.73c1.6,0,2.8-.83,2.8-2.36s-.81-2-2.25-2.66l-.42-.18c-.73-.31-1-.52-1-1a.74.74,0,0,1,.81-.73,1.16,1.16,0,0,1,1.09.73L16.1,9.5a2.5,2.5,0,0,0-2.4-1.33,2.26,2.26,0,0,0-2.48,2.23c0,1.38.81,2,2,2.55l.42.18c.78.34,1.24.55,1.24,1.13s-.45.83-1.15.83a1.83,1.83,0,0,1-1.67-1Z"/></svg>