<svg id="Layer_1" data-name="Layer 1" xmlns="http://www.w3.org/2000/svg" viewBox="0 0 218.58 250.97"><defs><style>.cls-1{fill:#f4511e;}</style></defs><title>jest</title><path class="cls-1" d="M154,62.09,137,96.41a36.79,36.79,0,0,1,11.09,19.71h12.81a36.85,36.85,0,0,1,10.26-19Z"/><path class="cls-1" d="M122.74,88.12,154,24.88l31.21,63.65c1.23-.41,2.46-.74,3.69-1.07L218.58,0H89.4L119,87.22C120.19,87.46,121.51,87.79,122.74,88.12ZM112,144.05a20.71,20.71,0,0,0,17.33-32,20.35,20.35,0,0,0-2.3-3l-.08-.08a15.3,15.3,0,0,0-2.79-2.38l-.09-.09a7.84,7.84,0,0,0-.9-.57c-.08,0-.08-.08-.16-.08-.33-.17-.66-.41-1-.58h-.08c-.33-.16-.74-.41-1.07-.57h-.08a4.62,4.62,0,0,0-1-.41c-.08,0-.16-.08-.24-.08-.25-.09-.58-.25-.82-.33s-.17-.09-.33-.09c-.33-.08-.66-.24-1-.32h-.08l-1.15-.25a.65.65,0,0,1-.33-.08c-.33-.08-.57-.08-.9-.17a.74.74,0,0,1-.41-.08c-.25,0-.58-.08-.82-.08H110.5c-.32,0-.57.08-.9.08h-.33c-.33.08-.65.08-1,.17H108l-1.15.24a20.79,20.79,0,0,0-15.77,20.12A21,21,0,0,0,112,144.05ZM199,102.66h-.16c-.33,0-.58-.09-.9-.09H196.9a7,7,0,0,0-1.32.09h-.41c-.32,0-.65.08-1,.08a.51.51,0,0,0-.33.08l-1.23.25h-.08l-1.15.24c-.09,0-.25.08-.33.08a5.48,5.48,0,0,0-1,.33c-.08,0-.16.08-.24.08-.41.17-.83.33-1.15.5s-.74.33-1.15.49c-.09,0-.17.08-.25.08a6.37,6.37,0,0,0-1,.58.08.08,0,0,0-.08.08,11.78,11.78,0,0,0-2.13,1.48l-.09.08a22.29,22.29,0,0,0-2.87,2.71,19,19,0,0,0-2.3,3.28,20.68,20.68,0,1,0,22-10.1,10.37,10.37,0,0,0-1.81-.32ZM26.16,144.05a20.7,20.7,0,1,0-20.69-20.7A20.72,20.72,0,0,0,26.16,144.05Z"/><path class="cls-1" d="M197,160.06a36.84,36.84,0,0,1-35.56-27.51h-13.8a36.82,36.82,0,0,1-35.56,27.51,41.06,41.06,0,0,1-5.66-.41,110.54,110.54,0,0,1-17.08,20.28A113.27,113.27,0,0,1,49.9,204.41l-3.37,1.23L43.41,204c-17.25-8.87-26.12-26.86-23-44.27a31.56,31.56,0,0,1-5.66-1.48c-.33.58-.58,1.23-.91,1.89-5.25,10.84-10.75,22-12.73,34-2.13,12.81-3,36.22,15,48.7A43.67,43.67,0,0,0,41.6,251c17.82,0,37-9.53,57.41-19.63,15.93-7.88,32.35-16.09,49.44-20.28,6.48-1.56,13.05-2.55,19.38-3.45,11.58-1.64,22.58-3.29,31.53-8.46a36.24,36.24,0,0,0,17.82-25.21,36.79,36.79,0,0,0-1.64-18.89,37.1,37.1,0,0,1-18.56,5Z"/></svg>