<svg id="Layer_1" data-name="Layer 1" xmlns="http://www.w3.org/2000/svg" viewBox="0 0 18 20.3"><defs><style>.cls-1{fill:#8bc34a;}</style></defs><title>nodejs</title><path class="cls-1" d="M9,0a1.62,1.62,0,0,0-.78.2L.78,4.5A1.58,1.58,0,0,0,0,5.86v8.58A1.58,1.58,0,0,0,.78,15.8l2,1.12a3.24,3.24,0,0,0,1.71.47,2.07,2.07,0,0,0,2.21-2.33V6.59a.22.22,0,0,0-.22-.22H5.5a.22.22,0,0,0-.23.22v8.47c0,.66-.68,1.31-1.77.76l-2-1.17a.26.26,0,0,1-.11-.21V5.86a.24.24,0,0,1,.11-.21L8.89,1.36a.22.22,0,0,1,.22,0l7.44,4.29a.24.24,0,0,1,.11.21v8.58a.26.26,0,0,1-.11.21L9.11,18.94a.24.24,0,0,1-.23,0L7,17.8a.26.26,0,0,0-.21,0,4.22,4.22,0,0,1-1.12.51c-.12,0-.31.11.07.32l2.48,1.47a1.55,1.55,0,0,0,1.56,0l7.44-4.29A1.58,1.58,0,0,0,18,14.44V5.86a1.58,1.58,0,0,0-.78-1.36L9.78.2A1.59,1.59,0,0,0,9,0m2,6.15c-2.12,0-3.39.89-3.39,2.39s1.26,2.08,3.3,2.28c2.43.24,2.62.6,2.62,1.08,0,.83-.67,1.18-2.23,1.18-2,0-2.4-.49-2.55-1.47a.23.23,0,0,0-.22-.18h-1a.21.21,0,0,0-.21.22c0,1.24.68,2.74,3.94,2.74,2.35,0,3.7-.93,3.7-2.55s-1.08-2-3.37-2.34S9.09,9,9.09,8.5s.2-1,1.91-1c1.5,0,2.09.33,2.32,1.36a.21.21,0,0,0,.21.17h1a.19.19,0,0,0,.15-.07.16.16,0,0,0,0-.16C14.56,7,13.38,6.15,11,6.15Z"/></svg>