<svg id="Layer_1" data-name="Layer 1" xmlns="http://www.w3.org/2000/svg" viewBox="0 0 162 189"><defs><style>.cls-1{fill:#56b3b4;}.cls-1,.cls-2,.cls-3,.cls-4{fill-rule:evenodd;}.cls-2{fill:#ea5e5e;}.cls-3{fill:#bf85bf;}.cls-4{fill:#f7ba3e;}</style></defs><title>prettier</title><path class="cls-1" d="M139.5,36h9a4.49,4.49,0,0,1,4.5,4.5h0a4.49,4.49,0,0,1-4.5,4.5h-9a4.49,4.49,0,0,1-4.5-4.5h0A4.49,4.49,0,0,1,139.5,36Z"/><path class="cls-2" d="M4.5,180h45a4.49,4.49,0,0,1,4.5,4.5h0a4.49,4.49,0,0,1-4.5,4.5H4.5A4.49,4.49,0,0,1,0,184.5H0A4.49,4.49,0,0,1,4.5,180Z"/><path class="cls-3" d="M112.5,108h27a4.49,4.49,0,0,1,4.5,4.5h0a4.49,4.49,0,0,1-4.5,4.5h-27a4.49,4.49,0,0,1-4.5-4.5h0A4.49,4.49,0,0,1,112.5,108Z"/><path class="cls-2" d="M58.5,108h36a4.49,4.49,0,0,1,4.5,4.5h0a4.49,4.49,0,0,1-4.5,4.5h-36a4.49,4.49,0,0,1-4.5-4.5h0A4.49,4.49,0,0,1,58.5,108Z"/><path class="cls-1" d="M4.5,108h36a4.49,4.49,0,0,1,4.5,4.5h0a4.49,4.49,0,0,1-4.5,4.5H4.5A4.49,4.49,0,0,1,0,112.5H0A4.49,4.49,0,0,1,4.5,108Z"/><path class="cls-3" d="M4.5,144h45a4.49,4.49,0,0,1,4.5,4.5h0a4.49,4.49,0,0,1-4.5,4.5H4.5A4.49,4.49,0,0,1,0,148.5H0A4.49,4.49,0,0,1,4.5,144Z"/><path class="cls-3" d="M4.5,72h45A4.49,4.49,0,0,1,54,76.5h0A4.49,4.49,0,0,1,49.5,81H4.5A4.49,4.49,0,0,1,0,76.5H0A4.49,4.49,0,0,1,4.5,72Z"/><path class="cls-4" d="M49.5,18h90a4.49,4.49,0,0,1,4.5,4.5h0a4.49,4.49,0,0,1-4.5,4.5h-90A4.49,4.49,0,0,1,45,22.5h0A4.49,4.49,0,0,1,49.5,18Z"/><path class="cls-2" d="M4.5,18h27A4.49,4.49,0,0,1,36,22.5h0A4.49,4.49,0,0,1,31.5,27H4.5A4.49,4.49,0,0,1,0,22.5H0A4.49,4.49,0,0,1,4.5,18Z"/><path class="cls-4" d="M40.5,162h9a4.49,4.49,0,0,1,4.5,4.5h0a4.49,4.49,0,0,1-4.5,4.5h-9a4.49,4.49,0,0,1-4.5-4.5h0A4.49,4.49,0,0,1,40.5,162Z"/><path class="cls-1" d="M40.5,54h9A4.49,4.49,0,0,1,54,58.5h0A4.49,4.49,0,0,1,49.5,63h-9A4.49,4.49,0,0,1,36,58.5h0A4.49,4.49,0,0,1,40.5,54Z"/><path class="cls-1" d="M4.5,162h18a4.49,4.49,0,0,1,4.5,4.5h0a4.49,4.49,0,0,1-4.5,4.5H4.5A4.49,4.49,0,0,1,0,166.5H0A4.49,4.49,0,0,1,4.5,162Z"/><path class="cls-4" d="M4.5,54h18A4.49,4.49,0,0,1,27,58.5h0A4.49,4.49,0,0,1,22.5,63H4.5A4.49,4.49,0,0,1,0,58.5H0A4.49,4.49,0,0,1,4.5,54Z"/><path class="cls-1" d="M76.5,90h72a4.49,4.49,0,0,1,4.5,4.5h0a4.49,4.49,0,0,1-4.5,4.5h-72A4.49,4.49,0,0,1,72,94.5h0A4.49,4.49,0,0,1,76.5,90Z"/><path class="cls-4" d="M31.5,90h27A4.49,4.49,0,0,1,63,94.5h0A4.49,4.49,0,0,1,58.5,99h-27A4.49,4.49,0,0,1,27,94.5h0A4.49,4.49,0,0,1,31.5,90Z"/><path class="cls-2" d="M4.5,90h9A4.49,4.49,0,0,1,18,94.5h0A4.49,4.49,0,0,1,13.5,99h-9A4.49,4.49,0,0,1,0,94.5H0A4.49,4.49,0,0,1,4.5,90Z"/><path class="cls-3" d="M85.5,36h36a4.49,4.49,0,0,1,4.5,4.5h0a4.49,4.49,0,0,1-4.5,4.5h-36A4.49,4.49,0,0,1,81,40.5h0A4.49,4.49,0,0,1,85.5,36Z"/><path class="cls-1" d="M4.5,36h63A4.49,4.49,0,0,1,72,40.5h0A4.49,4.49,0,0,1,67.5,45H4.5A4.49,4.49,0,0,1,0,40.5H0A4.49,4.49,0,0,1,4.5,36Z"/><path class="cls-4" d="M31.5,126h81a4.49,4.49,0,0,1,4.5,4.5h0a4.49,4.49,0,0,1-4.5,4.5h-81a4.49,4.49,0,0,1-4.5-4.5h0A4.49,4.49,0,0,1,31.5,126Z"/><path class="cls-3" d="M4.5,126h9a4.49,4.49,0,0,1,4.5,4.5h0a4.49,4.49,0,0,1-4.5,4.5h-9A4.49,4.49,0,0,1,0,130.5H0A4.49,4.49,0,0,1,4.5,126Z"/><path class="cls-2" d="M112.5,54h45a4.49,4.49,0,0,1,4.5,4.5h0a4.49,4.49,0,0,1-4.5,4.5h-45a4.49,4.49,0,0,1-4.5-4.5h0A4.49,4.49,0,0,1,112.5,54Z"/><path class="cls-4" d="M112.5,72h45a4.49,4.49,0,0,1,4.5,4.5h0a4.49,4.49,0,0,1-4.5,4.5h-45a4.49,4.49,0,0,1-4.5-4.5h0A4.49,4.49,0,0,1,112.5,72Z"/><path class="cls-1" d="M4.5,0h108A4.49,4.49,0,0,1,117,4.5h0A4.49,4.49,0,0,1,112.5,9H4.5A4.49,4.49,0,0,1,0,4.5H0A4.49,4.49,0,0,1,4.5,0Z"/></svg>