<svg id="Layer_1" data-name="Layer 1" xmlns="http://www.w3.org/2000/svg" viewBox="0 0 17 20"><defs><style>.cls-1{fill:#00bfa5;fill-rule:evenodd;}</style></defs><title>prisma</title><path class="cls-1" d="M15.31,15.87,6.09,18.52a.38.38,0,0,1-.49-.43L8.89,2.72a.32.32,0,0,1,.6-.06l6.1,12.61a.43.43,0,0,1-.21.57l-.07,0Zm1.58-.63L9.83.63a1.16,1.16,0,0,0-2-.11L.18,12.61a1.09,1.09,0,0,0,0,1.21l3.74,5.65a1.2,1.2,0,0,0,1,.53A1,1,0,0,0,5.28,20l10.87-3.13a1.18,1.18,0,0,0,.75-.63,1.09,1.09,0,0,0,0-1Z"/></svg>