<svg id="Layer_1" data-name="Layer 1" xmlns="http://www.w3.org/2000/svg" width="19.06" height="21.14" viewBox="0 0 19.06 21.14"><defs><style>.cls-1{fill:#757575;}.cls-2{fill:#0288d1;}.cls-3{fill:#fff;}</style></defs><path class="cls-1" d="M9,7h5.5L9,1.5V7M2,0h8l6,6V18a2,2,0,0,1-2,2H2a2,2,0,0,1-2-2V2A2,2,0,0,1,2,0m9,16V14H2v2h9m3-4V10H2v2Z"/><path class="cls-2" d="M6.06,8.14h13v13h-13Z"/><path class="cls-3" d="M16,11.36a1.89,1.89,0,0,1,.91.52,2.2507,2.2507,0,0,1,.34.47,10.48,10.48,0,0,1-1,.67s-.07,0-.13-.14a.8.8,0,0,0-.68-.4c-.44,0-.72.19-.72.58a.6609.6609,0,0,0,.06.27c.1.2.28.32.84.56A3.68,3.68,0,0,1,17.33,15a2.08,2.08,0,0,1,.17,1.77A1.93,1.93,0,0,1,15.9,18a4.4984,4.4984,0,0,1-1.1,0,2.73,2.73,0,0,1-1.47-.77,2.368,2.368,0,0,1-.37-.56l.13-.08.54-.31L14,16l.09.12a2,2,0,0,0,.55.53,1.36,1.36,0,0,0,1.4-.07.62.62,0,0,0,.08-.81c-.11-.16-.34-.29-1-.57a3.7,3.7,0,0,1-1.36-.84,1.9993,1.9993,0,0,1-.4-.72,3.1517,3.1517,0,0,1,0-.92,1.77,1.77,0,0,1,1.48-1.37,4.0029,4.0029,0,0,1,1.09,0ZM12.57,12v.59H10.7V17.9H9.37V12.56H7.49V11.4h5.06Z"/></svg>