<svg id="Layer_1" data-name="Layer 1" xmlns="http://www.w3.org/2000/svg" viewBox="0 0 408 408"><defs><style>.cls-1{fill:#0288d1;fill-rule:evenodd;}</style></defs><title>typescript</title><path class="cls-1" d="M0,0V408H408V0ZM310,198.17h0c3.91,0,8.36.21,11.7.57,13.62,1.48,24.23,7.35,33.25,18.42,4.49,5.51,6,7.92,5.7,9-.21.66-3.29,2.87-13.09,9.38-9.63,6.39-12.73,8.3-13.45,8.3s-2.25-1.56-4.45-4.57c-4.22-5.79-8.54-8.43-15.2-9.31-7.17-1-13.6,1.31-16.76,5.89-2.69,3.91-3.1,10.2-1,14.78,2.48,5.29,7,8.22,24.17,15.76,19.84,8.7,29.89,14.65,37.21,22,7.88,8,11.88,17.15,13.11,30.14a55.72,55.72,0,0,1-1.95,19.94c-4.44,15-16.44,25.92-34,31.07a65.76,65.76,0,0,1-13.85,2.61,122.76,122.76,0,0,1-22.49-.63c-14.88-2.17-31.69-10.83-40.06-20.65-4.12-4.82-9.37-12.76-9.37-14.15,0-.68.34-1.06,1.66-1.9,3.92-2.49,26.39-15.34,26.83-15.34a12.07,12.07,0,0,1,2.61,3.08c2.65,3.82,9.17,10.4,12.48,12.6a33.67,33.67,0,0,0,10.28,4.27c2.35.59,3.6.69,8.73.69s6.33-.09,8.68-.72c6.21-1.67,11.05-5.13,13.11-9.35.9-1.83.92-2.06.92-6.48V319l-1.11-2.19c-2.67-5.31-8.43-8.95-26.64-16.84-8.37-3.62-18.61-8.73-22.61-11.27-9.13-5.8-15.46-12.44-19.61-20.55s-4.75-11.08-4.76-23.22c0-9.5,0-9.39,1.94-15.45a45.31,45.31,0,0,1,9.48-15.94c8.05-8.56,19.81-14.06,32.4-15.15,1.61-.16,3.77-.22,6.12-.21Zm-108.36,1.88h0c24.26,0,38.16.09,38.38.23.42.26.48,2.37.48,15.85v15.54l-24.2.08-24.21.09v68.72c0,37.79-.07,68.93-.18,69.21-.17.46-2,.5-17.78.5H156.56l-.18-.71c-.11-.39-.2-31.54-.2-69.22v-68.5l-24.2-.09-24.2-.09V216.31c0-12.18.08-15.44.41-15.77s12.68-.43,65.9-.48c10.26,0,19.5,0,27.58,0Z"/></svg>